# xmcd CD database file
#
# Track frame offsets:
#	150
#	12124
#	23991
#	36038
#	37154
#	38193
#	48902
#	61095
#	72448
#	84611
#	96806
#	108711
#	120341
#	131649
#	145439
#	150922
#	156381
#	161856
#	167324
#	176192
#	187541
#	198937
#	212185
#	223973
#	235741
#	240512
#	245274
#	250096
#	254839
#	259613
#	264358
#	269075
#	273828
#	278566
#	283276
#	288015
#	290565
#	293135
#	295619
#	298100
#	300572
#	303138
#	305701
#	308263
#	310775
#
# Disc length: 4176 seconds
#
# Revision: 0
# Processed by: cddbd v1.5.1PL0 Copyright (c) Steve Scherf et al.
# Submitted via: CDex 1.51
#
DISCID=97104e2d
DTITLE=Sonoton Authentic Series - SAS 207 - China Today
DYEAR=1998
DGENRE=Contentum
TTITLE0=Jasmine funk 1
TTITLE1=Jasmine funk 2
TTITLE2=Canton Groove 1
TTITLE3=Canton Groove 2
TTITLE4=Canton Groove 3
TTITLE5=Canton Groove 4
TTITLE6=Beijing Rock 1
TTITLE7=Beijing Rock 2
TTITLE8=Henan Reggae 1
TTITLE9=Henan Reggae 2
TTITLE10=Tibet echoes 1
TTITLE11=Tibet echoes 2
TTITLE12=Hebei dance
TTITLE13=Mongolian dream 1
TTITLE14=Mongolian dream 2
TTITLE15=Mongolian dream 3
TTITLE16=Mongolian dream 4
TTITLE17=Mongolian dream 5
TTITLE18=Mongolian dream 6
TTITLE19=Ambush 1
TTITLE20=Ambush 2
TTITLE21=Mountain beauty
TTITLE22=Beyond 1
TTITLE23=Beyond 2
TTITLE24=59 second versions - Jasmine funk 1
TTITLE25=59 second versions - Jasmine funk 2
TTITLE26=59 second versions - Canton groove
TTITLE27=59 second versions - Beijing rock
TTITLE28=59 second versions - Henan reggae
TTITLE29=59 second versions - Tibet echoes
TTITLE30=59 second versions - Hebei dance
TTITLE31=59 second versions - Mongolian dream
TTITLE32=59 second versions - Ambush
TTITLE33=59 second versions - Mountain beauty
TTITLE34=59 second versions - Beyond
TTITLE35=29 second versions - Jasmine funk
TTITLE36=29 second versions - Canton groove
TTITLE37=29 second versions - Beijing rock
TTITLE38=29 second versions - Henan reggae
TTITLE39=29 second versions - Tibet echoes
TTITLE40=29 second versions - Hebei dance
TTITLE41=29 second versions - Mongolian dream
TTITLE42=29 second versions - Ambush
TTITLE43=29 second versions - Mountain beauty
TTITLE44=29 second versions - Beyond
EXTD=YEAR: 1998
EXTT0=
EXTT1=
EXTT2=
EXTT3=
EXTT4=
EXTT5=
EXTT6=
EXTT7=
EXTT8=
EXTT9=
EXTT10=
EXTT11=
EXTT12=
EXTT13=
EXTT14=
EXTT15=
EXTT16=
EXTT17=
EXTT18=
EXTT19=
EXTT20=
EXTT21=
EXTT22=
EXTT23=
EXTT24=
EXTT25=
EXTT26=
EXTT27=
EXTT28=
EXTT29=
EXTT30=
EXTT31=
EXTT32=
EXTT33=
EXTT34=
EXTT35=
EXTT36=
EXTT37=
EXTT38=
EXTT39=
EXTT40=
EXTT41=
EXTT42=
EXTT43=
EXTT44=
PLAYORDER=
